<svg xmlns="http://www.w3.org/2000/svg" viewBox="0 0 64 64">
  <defs>
    <linearGradient id="g" x1="0%" y1="0%" x2="100%" y2="100%">
      <stop offset="0%" stop-color="#1e6bff"/>
      <stop offset="100%" stop-color="#0faf63"/>
    </linearGradient>
  </defs>
  <rect x="4" y="4" width="56" height="56" rx="14" fill="url(#g)" />
  <path fill="#ffffff" d="M32 18c1.66 0 3 1.34 3 3v8h8c1.66 0 3 1.34 3 3s-1.34 3-3 3h-8v8c0 1.66-1.34 3-3 3s-3-1.34-3-3v-8h-8c-1.66 0-3-1.34-3-3s1.34-3 3-3h8v-8c0-1.66 1.34-3 3-3z"/>
  <circle cx="22" cy="24" r="6" fill="#ffffff" opacity="0.15"/>
</svg>
